# Blender v2.79 (sub 0) OBJ File: '02Blender.blend'
# www.blender.org
mtllib 02Blender.mtl
o Cube.010_Cube.014
v -0.532884 0.077083 0.349877
v -0.532884 0.377083 0.349877
v -0.532884 0.077083 0.149877
v -0.532884 0.377083 0.149877
v -0.332884 0.077083 0.349877
v -0.332884 0.377083 0.349877
v -0.332884 0.077083 0.149877
v -0.332884 0.377083 0.149877
vn -1.0000 0.0000 0.0000
vn 0.0000 0.0000 -1.0000
vn 1.0000 0.0000 0.0000
vn 0.0000 0.0000 1.0000
vn 0.0000 -1.0000 0.0000
vn 0.0000 1.0000 0.0000
usemtl Material.001
s off
f 1//1 2//1 4//1 3//1
f 3//2 4//2 8//2 7//2
f 7//3 8//3 6//3 5//3
f 5//4 6//4 2//4 1//4
f 3//5 7//5 5//5 1//5
f 8//6 4//6 2//6 6//6
o Cube.009_Cube.013
v -1.131062 0.320647 0.350000
v -1.131062 0.820647 0.350000
v -1.131062 0.320647 -0.350000
v -1.131062 0.820647 -0.350000
v -0.331062 0.320647 0.350000
v -0.331062 0.820647 0.350000
v -0.331062 0.320647 -0.350000
v -0.331062 0.820647 -0.350000
vn -1.0000 0.0000 0.0000
vn 0.0000 0.0000 -1.0000
vn 1.0000 0.0000 0.0000
vn 0.0000 0.0000 1.0000
vn 0.0000 -1.0000 0.0000
vn 0.0000 1.0000 0.0000
usemtl Material.001
s off
f 9//7 10//7 12//7 11//7
f 11//8 12//8 16//8 15//8
f 15//9 16//9 14//9 13//9
f 13//10 14//10 10//10 9//10
f 11//11 15//11 13//11 9//11
f 16//12 12//12 10//12 14//12
o Cube.008_Cube.012
v -0.496212 0.644599 0.452872
v -0.496212 1.550343 0.452872
v -0.496212 0.644599 -0.452872
v -0.496212 1.550343 -0.452872
v -0.196212 0.644599 0.452872
v -0.196212 1.550343 0.452872
v -0.196212 0.644599 -0.452872
v -0.196212 1.550343 -0.452872
v -0.496212 0.644599 0.358984
v -0.496212 1.550343 0.358984
v -0.196212 0.644599 0.358984
v -0.196212 1.550343 0.358984
v -0.496212 1.550343 -0.361745
v -0.196212 0.644599 -0.361745
v -0.496212 0.644599 -0.361745
v -0.196212 1.550343 -0.361745
v -0.496212 1.461978 0.452872
v -0.496212 1.461978 -0.452872
v -0.196212 1.461978 -0.452872
v -0.196212 1.461978 0.452872
v -0.196212 1.461978 0.358984
v -0.496212 1.461978 0.358984
v -0.196212 1.461978 -0.361745
v -0.496212 1.461978 -0.361745
v -0.496212 0.732965 -0.452872
v -0.196212 0.732965 -0.452872
v -0.196212 0.732965 0.452872
v -0.196212 0.732965 0.358984
v -0.496212 0.732965 0.358984
v -0.196212 0.732965 -0.361745
v -0.496212 0.732965 -0.361745
v -0.496212 0.732965 0.452872
v -0.496212 0.644599 -0.361745
v -0.496212 0.644599 0.358984
v -0.196212 1.550343 -0.361745
v -0.196212 1.550343 0.358984
v -0.496212 1.550343 0.358984
v -0.196212 0.644599 0.358984
v -0.496212 1.550343 -0.361745
v -0.196212 0.644599 -0.361745
v -0.496212 0.732965 0.452872
v -0.496212 1.461978 0.452872
v -0.196212 1.461978 0.452872
v -0.496212 1.461978 -0.452872
v -0.196212 1.461978 -0.452872
v -0.496212 0.732965 -0.452872
v -0.196212 0.732965 -0.452872
v -0.196212 0.732965 0.452872
v -0.196212 1.647471 -0.361745
v -0.496212 1.647471 -0.361745
v -0.496212 1.647471 0.358984
v -0.196212 1.647471 0.358984
v -0.496212 0.547471 -0.361745
v -0.196212 0.547471 -0.361745
v -0.196212 0.547471 0.358984
v -0.496212 0.547471 0.358984
v -0.196212 0.732965 0.550000
v -0.196212 1.461978 0.550000
v -0.496212 1.461978 0.550000
v -0.496212 0.732965 0.550000
v -0.496212 0.732965 -0.550000
v -0.496212 1.461978 -0.550000
v -0.196212 1.461978 -0.550000
v -0.196212 0.732965 -0.550000
vn -1.0000 0.0000 0.0000
vn 0.0000 0.0000 -1.0000
vn 1.0000 0.0000 0.0000
vn 0.0000 0.0000 1.0000
vn 0.0000 -1.0000 0.0000
vn 0.0000 1.0000 0.0000
usemtl Material.013
s off
f 40//13 29//13 20//13 34//13
f 34//14 20//14 24//14 35//14
f 37//15 28//15 22//15 36//15
f 36//16 22//16 18//16 33//16
f 25//17 27//17 21//17 17//17
f 28//18 26//18 18//18 22//18
f 29//16 26//16 53//16 55//16
f 34//16 35//16 61//16 60//16
f 39//15 32//15 28//15 37//15
f 33//13 18//13 26//13 38//13
f 35//15 24//15 32//15 39//15
f 19//17 23//17 30//17 31//17
f 24//18 20//18 29//18 32//18
f 38//13 26//13 29//13 40//13
f 45//13 38//13 40//13 47//13
f 42//15 35//15 39//15 46//15
f 48//13 33//13 38//13 45//13
f 46//15 39//15 37//15 44//15
f 25//16 31//16 49//16 50//16
f 44//15 37//15 36//15 43//15
f 32//16 29//16 55//16 51//16
f 47//13 40//13 34//13 41//13
f 31//13 47//13 41//13 19//13
f 19//14 41//14 42//14 23//14
f 27//15 44//15 43//15 21//15
f 21//16 43//16 48//16 17//16
f 30//15 46//15 44//15 27//15
f 17//13 48//13 45//13 25//13
f 23//15 42//15 46//15 30//15
f 25//13 45//13 47//13 31//13
f 33//16 48//16 57//16 58//16
f 30//16 27//16 54//16 56//16
f 41//16 34//16 60//16 62//16
f 28//16 32//16 51//16 52//16
f 35//16 42//16 63//16 61//16
f 42//16 41//16 62//16 63//16
f 26//16 28//16 52//16 53//16
f 43//16 36//16 59//16 64//16
f 27//16 25//16 50//16 54//16
f 31//16 30//16 56//16 49//16
f 36//16 33//16 58//16 59//16
f 48//16 43//16 64//16 57//16
f 65//18 66//18 67//18 68//18
f 55//14 66//14 65//14 51//14
f 53//13 67//13 66//13 55//13
f 52//16 68//16 67//16 53//16
f 51//15 65//15 68//15 52//15
f 69//17 70//17 71//17 72//17
f 56//14 70//14 69//14 49//14
f 54//15 71//15 70//15 56//15
f 50//16 72//16 71//16 54//16
f 49//13 69//13 72//13 50//13
f 73//16 74//16 75//16 76//16
f 59//15 74//15 73//15 64//15
f 58//18 75//18 74//18 59//18
f 57//13 76//13 75//13 58//13
f 64//17 73//17 76//17 57//17
f 77//14 78//14 79//14 80//14
f 60//13 78//13 77//13 62//13
f 61//18 79//18 78//18 60//18
f 63//15 80//15 79//15 61//15
f 62//17 77//17 80//17 63//17
o Cube.004_Cube.008
v 0.195000 1.046552 0.250000
v 0.195000 1.146552 0.250000
v 0.195000 1.046552 0.150000
v 0.195000 1.146552 0.150000
v 0.245000 1.046552 0.250000
v 0.245000 1.146552 0.250000
v 0.245000 1.046552 0.150000
v 0.245000 1.146552 0.150000
vn -1.0000 0.0000 0.0000
vn 0.0000 0.0000 -1.0000
vn 1.0000 0.0000 0.0000
vn 0.0000 0.0000 1.0000
vn 0.0000 -1.0000 0.0000
vn 0.0000 1.0000 0.0000
usemtl Material.009
s off
f 81//19 82//19 84//19 83//19
f 83//20 84//20 88//20 87//20
f 87//21 88//21 86//21 85//21
f 85//22 86//22 82//22 81//22
f 83//23 87//23 85//23 81//23
f 88//24 84//24 82//24 86//24
o Cube_Cube.001
v -0.200000 1.300000 0.400000
v -0.200000 1.500000 0.400000
v -0.200000 1.300000 0.200000
v -0.200000 1.500000 0.200000
v 0.000000 1.300000 0.400000
v 0.000000 1.500000 0.400000
v 0.000000 1.300000 0.200000
v 0.000000 1.500000 0.200000
vn -1.0000 0.0000 0.0000
vn 0.0000 0.0000 -1.0000
vn 1.0000 0.0000 0.0000
vn 0.0000 0.0000 1.0000
vn 0.0000 -1.0000 0.0000
vn 0.0000 1.0000 0.0000
usemtl Material.001
s off
f 89//25 90//25 92//25 91//25
f 91//26 92//26 96//26 95//26
f 95//27 96//27 94//27 93//27
f 93//28 94//28 90//28 89//28
f 91//29 95//29 93//29 89//29
f 96//30 92//30 90//30 94//30
o Plane
v -30.000000 0.000000 30.000000
v 30.000000 0.000000 30.000000
v -30.000000 0.000000 -30.000000
v 30.000000 0.000000 -30.000000
vn 0.0000 1.0000 0.0000
usemtl Material
s off
f 97//31 98//31 100//31 99//31
o Cube.001_Cube.005
v -0.200000 0.700000 0.400000
v -0.200000 1.300000 0.400000
v -0.200000 0.700000 -0.400000
v -0.200000 1.300000 -0.400000
v 0.200000 0.700000 0.400000
v 0.200000 1.300000 0.400000
v 0.200000 0.700000 -0.400000
v 0.200000 1.300000 -0.400000
vn -1.0000 0.0000 0.0000
vn 0.0000 0.0000 -1.0000
vn 1.0000 0.0000 0.0000
vn 0.0000 0.0000 1.0000
vn 0.0000 -1.0000 0.0000
vn 0.0000 1.0000 0.0000
usemtl Material.005
s off
f 101//32 102//32 104//32 103//32
f 103//33 104//33 108//33 107//33
f 107//34 108//34 106//34 105//34
f 105//35 106//35 102//35 101//35
f 103//36 107//36 105//36 101//36
f 108//37 104//37 102//37 106//37
o Cube.002_Cube.006
v -0.200000 1.300000 -0.200000
v -0.200000 1.500000 -0.200000
v -0.200000 1.300000 -0.400000
v -0.200000 1.500000 -0.400000
v 0.000000 1.300000 -0.200000
v 0.000000 1.500000 -0.200000
v 0.000000 1.300000 -0.400000
v 0.000000 1.500000 -0.400000
vn -1.0000 0.0000 0.0000
vn 0.0000 0.0000 -1.0000
vn 1.0000 0.0000 0.0000
vn 0.0000 0.0000 1.0000
vn 0.0000 -1.0000 0.0000
vn 0.0000 1.0000 0.0000
usemtl Material.006
s off
f 109//38 110//38 112//38 111//38
f 111//39 112//39 116//39 115//39
f 115//40 116//40 114//40 113//40
f 113//41 114//41 110//41 109//41
f 111//42 115//42 113//42 109//42
f 116//43 112//43 110//43 114//43
o Cube.003_Cube.007
v 0.200000 0.700000 0.250000
v 0.200000 1.000000 0.250000
v 0.200000 0.700000 -0.250000
v 0.200000 1.000000 -0.250000
v 0.400000 0.700000 0.250000
v 0.400000 1.000000 0.250000
v 0.400000 0.700000 -0.250000
v 0.400000 1.000000 -0.250000
vn -1.0000 0.0000 0.0000
vn 0.0000 0.0000 -1.0000
vn 1.0000 0.0000 0.0000
vn 0.0000 0.0000 1.0000
vn 0.0000 -1.0000 0.0000
vn 0.0000 1.0000 0.0000
usemtl Material.008
s off
f 117//44 118//44 120//44 119//44
f 119//45 120//45 124//45 123//45
f 123//46 124//46 122//46 121//46
f 121//47 122//47 118//47 117//47
f 119//48 123//48 121//48 117//48
f 124//49 120//49 118//49 122//49
o Cube.005_Cube.009
v 0.195000 1.046552 -0.150000
v 0.195000 1.146552 -0.150000
v 0.195000 1.046552 -0.250000
v 0.195000 1.146552 -0.250000
v 0.245000 1.046552 -0.150000
v 0.245000 1.146552 -0.150000
v 0.245000 1.046552 -0.250000
v 0.245000 1.146552 -0.250000
vn -1.0000 0.0000 0.0000
vn 0.0000 0.0000 -1.0000
vn 1.0000 0.0000 0.0000
vn 0.0000 0.0000 1.0000
vn 0.0000 -1.0000 0.0000
vn 0.0000 1.0000 0.0000
usemtl Material.010
s off
f 125//50 126//50 128//50 127//50
f 127//51 128//51 132//51 131//51
f 131//52 132//52 130//52 129//52
f 129//53 130//53 126//53 125//53
f 127//54 131//54 129//54 125//54
f 132//55 128//55 126//55 130//55
o Cube.006_Cube.010
v 0.398776 0.774623 0.055650
v 0.398776 0.924623 0.055650
v 0.398776 0.774623 -0.044350
v 0.398776 0.924623 -0.044350
v 0.448776 0.774623 0.055650
v 0.448776 0.924623 0.055650
v 0.448776 0.774623 -0.044350
v 0.448776 0.924623 -0.044350
vn -1.0000 0.0000 0.0000
vn 0.0000 0.0000 -1.0000
vn 1.0000 0.0000 0.0000
vn 0.0000 0.0000 1.0000
vn 0.0000 -1.0000 0.0000
vn 0.0000 1.0000 0.0000
usemtl Material.011
s off
f 133//56 134//56 136//56 135//56
f 135//57 136//57 140//57 139//57
f 139//58 140//58 138//58 137//58
f 137//59 138//59 134//59 133//59
f 135//60 139//60 137//60 133//60
f 140//61 136//61 134//61 138//61
o Cube.007_Cube.011
v 0.398776 0.900000 0.155650
v 0.398776 1.000000 0.155650
v 0.398776 0.900000 -0.144350
v 0.398776 1.000000 -0.144350
v 0.448776 0.900000 0.155650
v 0.448776 1.000000 0.155650
v 0.448776 0.900000 -0.144350
v 0.448776 1.000000 -0.144350
vn -1.0000 0.0000 0.0000
vn 0.0000 0.0000 -1.0000
vn 1.0000 0.0000 0.0000
vn 0.0000 0.0000 1.0000
vn 0.0000 -1.0000 0.0000
vn 0.0000 1.0000 0.0000
usemtl Material.012
s off
f 141//62 142//62 144//62 143//62
f 143//63 144//63 148//63 147//63
f 147//64 148//64 146//64 145//64
f 145//65 146//65 142//65 141//65
f 143//66 147//66 145//66 141//66
f 148//67 144//67 142//67 146//67
o Cube.011_Cube.015
v -1.130118 0.077083 0.349877
v -1.130118 0.377083 0.349877
v -1.130118 0.077083 0.149877
v -1.130118 0.377083 0.149877
v -0.930118 0.077083 0.349877
v -0.930118 0.377083 0.349877
v -0.930118 0.077083 0.149877
v -0.930118 0.377083 0.149877
vn -1.0000 0.0000 0.0000
vn 0.0000 0.0000 -1.0000
vn 1.0000 0.0000 0.0000
vn 0.0000 0.0000 1.0000
vn 0.0000 -1.0000 0.0000
vn 0.0000 1.0000 0.0000
usemtl Material.014
s off
f 149//68 150//68 152//68 151//68
f 151//69 152//69 156//69 155//69
f 155//70 156//70 154//70 153//70
f 153//71 154//71 150//71 149//71
f 151//72 155//72 153//72 149//72
f 156//73 152//73 150//73 154//73
o Cube.013_Cube.017
v -0.532884 0.077083 -0.150140
v -0.532884 0.377083 -0.150140
v -0.532884 0.077083 -0.350140
v -0.532884 0.377083 -0.350140
v -0.332884 0.077083 -0.150140
v -0.332884 0.377083 -0.150140
v -0.332884 0.077083 -0.350140
v -0.332884 0.377083 -0.350140
vn -1.0000 0.0000 0.0000
vn 0.0000 0.0000 -1.0000
vn 1.0000 0.0000 0.0000
vn 0.0000 0.0000 1.0000
vn 0.0000 -1.0000 0.0000
vn 0.0000 1.0000 0.0000
usemtl Material.016
s off
f 157//74 158//74 160//74 159//74
f 159//75 160//75 164//75 163//75
f 163//76 164//76 162//76 161//76
f 161//77 162//77 158//77 157//77
f 159//78 163//78 161//78 157//78
f 164//79 160//79 158//79 162//79
o Cube.012_Cube.016
v -1.130118 0.077083 -0.150140
v -1.130118 0.377083 -0.150140
v -1.130118 0.077083 -0.350140
v -1.130118 0.377083 -0.350140
v -0.930118 0.077083 -0.150140
v -0.930118 0.377083 -0.150140
v -0.930118 0.077083 -0.350140
v -0.930118 0.377083 -0.350140
vn -1.0000 0.0000 0.0000
vn 0.0000 0.0000 -1.0000
vn 1.0000 0.0000 0.0000
vn 0.0000 0.0000 1.0000
vn 0.0000 -1.0000 0.0000
vn 0.0000 1.0000 0.0000
usemtl Material.015
s off
f 165//80 166//80 168//80 167//80
f 167//81 168//81 172//81 171//81
f 171//82 172//82 170//82 169//82
f 169//83 170//83 166//83 165//83
f 167//84 171//84 169//84 165//84
f 172//85 168//85 166//85 170//85
o Cube.014_Cube.018
v -1.130118 0.077083 0.349877
v -1.130118 0.377083 0.349877
v -1.130118 0.077083 0.149877
v -1.130118 0.377083 0.149877
v -0.930118 0.077083 0.349877
v -0.930118 0.377083 0.349877
v -0.930118 0.077083 0.149877
v -0.930118 0.377083 0.149877
vn -1.0000 0.0000 0.0000
vn 0.0000 0.0000 -1.0000
vn 1.0000 0.0000 0.0000
vn 0.0000 0.0000 1.0000
vn 0.0000 -1.0000 0.0000
vn 0.0000 1.0000 0.0000
usemtl Material.017
s off
f 173//86 174//86 176//86 175//86
f 175//87 176//87 180//87 179//87
f 179//88 180//88 178//88 177//88
f 177//89 178//89 174//89 173//89
f 175//90 179//90 177//90 173//90
f 180//91 176//91 174//91 178//91
o Cube.015_Cube.019
v -0.557884 -0.000852 0.374877
v -0.557884 0.179148 0.374877
v -0.557884 -0.000852 0.124877
v -0.557884 0.179148 0.124877
v -0.307884 -0.000852 0.374877
v -0.307884 0.179148 0.374877
v -0.307884 -0.000852 0.124877
v -0.307884 0.179148 0.124877
vn -1.0000 0.0000 0.0000
vn 0.0000 0.0000 -1.0000
vn 1.0000 0.0000 0.0000
vn 0.0000 0.0000 1.0000
vn 0.0000 -1.0000 0.0000
vn 0.0000 1.0000 0.0000
usemtl Material.012
s off
f 181//92 182//92 184//92 183//92
f 183//93 184//93 188//93 187//93
f 187//94 188//94 186//94 185//94
f 185//95 186//95 182//95 181//95
f 183//96 187//96 185//96 181//96
f 188//97 184//97 182//97 186//97
o Cube.016_Cube.020
v -0.557884 -0.000852 -0.124560
v -0.557884 0.179148 -0.124560
v -0.557884 -0.000852 -0.374560
v -0.557884 0.179148 -0.374560
v -0.307884 -0.000852 -0.124560
v -0.307884 0.179148 -0.124560
v -0.307884 -0.000852 -0.374560
v -0.307884 0.179148 -0.374560
vn -1.0000 0.0000 0.0000
vn 0.0000 0.0000 -1.0000
vn 1.0000 0.0000 0.0000
vn 0.0000 0.0000 1.0000
vn 0.0000 -1.0000 0.0000
vn 0.0000 1.0000 0.0000
usemtl Material.019
s off
f 189//98 190//98 192//98 191//98
f 191//99 192//99 196//99 195//99
f 195//100 196//100 194//100 193//100
f 193//101 194//101 190//101 189//101
f 191//102 195//102 193//102 189//102
f 196//103 192//103 190//103 194//103
o Cube.018_Cube.022
v -1.153680 -0.000852 0.374877
v -1.153680 0.179148 0.374877
v -1.153680 -0.000852 0.124877
v -1.153680 0.179148 0.124877
v -0.903680 -0.000852 0.374877
v -0.903680 0.179148 0.374877
v -0.903680 -0.000852 0.124877
v -0.903680 0.179148 0.124877
vn -1.0000 0.0000 0.0000
vn 0.0000 0.0000 -1.0000
vn 1.0000 0.0000 0.0000
vn 0.0000 0.0000 1.0000
vn 0.0000 -1.0000 0.0000
vn 0.0000 1.0000 0.0000
usemtl Material.021
s off
f 197//104 198//104 200//104 199//104
f 199//105 200//105 204//105 203//105
f 203//106 204//106 202//106 201//106
f 201//107 202//107 198//107 197//107
f 199//108 203//108 201//108 197//108
f 204//109 200//109 198//109 202//109
o Cube.017_Cube.021
v -1.153680 -0.000852 -0.124560
v -1.153680 0.179148 -0.124560
v -1.153680 -0.000852 -0.374560
v -1.153680 0.179148 -0.374560
v -0.903680 -0.000852 -0.124560
v -0.903680 0.179148 -0.124560
v -0.903680 -0.000852 -0.374560
v -0.903680 0.179148 -0.374560
vn -1.0000 0.0000 0.0000
vn 0.0000 0.0000 -1.0000
vn 1.0000 0.0000 0.0000
vn 0.0000 0.0000 1.0000
vn 0.0000 -1.0000 0.0000
vn 0.0000 1.0000 0.0000
usemtl Material.020
s off
f 205//110 206//110 208//110 207//110
f 207//111 208//111 212//111 211//111
f 211//112 212//112 210//112 209//112
f 209//113 210//113 206//113 205//113
f 207//114 211//114 209//114 205//114
f 212//115 208//115 206//115 210//115
o Cube.019_Cube.023
v -1.326300 0.581198 0.100000
v -1.326300 0.781198 0.100000
v -1.326300 0.581198 -0.100000
v -1.326300 0.781198 -0.100000
v -1.126300 0.581198 0.100000
v -1.126300 0.781198 0.100000
v -1.126300 0.581198 -0.100000
v -1.126300 0.781198 -0.100000
vn -1.0000 0.0000 0.0000
vn 0.0000 0.0000 -1.0000
vn 1.0000 0.0000 0.0000
vn 0.0000 0.0000 1.0000
vn 0.0000 -1.0000 0.0000
vn 0.0000 1.0000 0.0000
usemtl Material.019
s off
f 213//116 214//116 216//116 215//116
f 215//117 216//117 220//117 219//117
f 219//118 220//118 218//118 217//118
f 217//119 218//119 214//119 213//119
f 215//120 219//120 217//120 213//120
f 220//121 216//121 214//121 218//121
o Cube.020_Cube.024
v -0.081139 1.253484 0.362448
v -0.081139 1.453484 0.362448
v -0.081139 1.253484 0.242448
v -0.081139 1.453484 0.242448
v 0.018861 1.253484 0.362448
v 0.018861 1.453484 0.362448
v 0.018861 1.253484 0.242448
v 0.018861 1.453484 0.242448
vn -1.0000 0.0000 0.0000
vn 0.0000 0.0000 -1.0000
vn 1.0000 0.0000 0.0000
vn 0.0000 0.0000 1.0000
vn 0.0000 -1.0000 0.0000
vn 0.0000 1.0000 0.0000
usemtl Material.008
s off
f 221//122 222//122 224//122 223//122
f 223//123 224//123 228//123 227//123
f 227//124 228//124 226//124 225//124
f 225//125 226//125 222//125 221//125
f 223//126 227//126 225//126 221//126
f 228//127 224//127 222//127 226//127
o Cube.021_Cube.025
v -0.081139 1.253484 -0.237366
v -0.081139 1.453484 -0.237366
v -0.081139 1.253484 -0.357366
v -0.081139 1.453484 -0.357366
v 0.018861 1.253484 -0.237366
v 0.018861 1.453484 -0.237366
v 0.018861 1.253484 -0.357366
v 0.018861 1.453484 -0.357366
vn -1.0000 0.0000 0.0000
vn 0.0000 0.0000 -1.0000
vn 1.0000 0.0000 0.0000
vn 0.0000 0.0000 1.0000
vn 0.0000 -1.0000 0.0000
vn 0.0000 1.0000 0.0000
usemtl Material.024
s off
f 229//128 230//128 232//128 231//128
f 231//129 232//129 236//129 235//129
f 235//130 236//130 234//130 233//130
f 233//131 234//131 230//131 229//131
f 231//132 235//132 233//132 229//132
f 236//133 232//133 230//133 234//133
